<svg width="28" height="28" viewBox="0 0 28 28" fill="none" xmlns="http://www.w3.org/2000/svg">
<path d="M14 6C11.7373 6 9.90308 7.86872 9.90308 10.1739H9.05027C8.02357 10.1739 7.15547 10.9482 7.01978 11.985L6.01831 19.6372C5.85457 20.8883 6.80991 22 8.0488 22H19.9512C21.1901 22 22.1454 20.8883 21.9817 19.6372L20.9802 11.985C20.8445 10.9482 19.9764 10.1739 18.9497 10.1739H18.0969C18.0969 7.86872 16.2627 6 14 6ZM16.7313 10.1739H11.2687C11.2687 8.63712 12.4916 7.3913 14 7.3913C15.5084 7.3913 16.7313 8.63712 16.7313 10.1739ZM9.05027 11.5652H18.9497C19.292 11.5652 19.5813 11.8233 19.6266 12.1689L20.628 19.8211C20.6826 20.2381 20.3642 20.6087 19.9512 20.6087H8.0488C7.63584 20.6087 7.31739 20.2381 7.37197 19.8211L8.37344 12.1689C8.41867 11.8233 8.70803 11.5652 9.05027 11.5652Z" fill="white"/>
</svg>
