<svg width="24" height="24" viewBox="0 0 24 24" fill="none" xmlns="http://www.w3.org/2000/svg">
<rect x="0.5" y="0.5" width="23" height="23" rx="11.5" stroke="#999999"/>
<path d="M8.97826 7.75736C8.64353 7.42262 8.10081 7.42262 7.76608 7.75736C7.43134 8.09209 7.43134 8.63481 7.76608 8.96954L10.7965 12L7.76608 15.0305C7.43134 15.3652 7.43134 15.9079 7.76608 16.2426C8.10081 16.5774 8.64353 16.5774 8.97826 16.2426L12.0087 13.2122L15.0392 16.2426C15.3739 16.5774 15.9166 16.5774 16.2514 16.2426C16.5861 15.9079 16.5861 15.3652 16.2514 15.0305L13.2209 12L16.2514 8.96954C16.5861 8.63481 16.5861 8.09209 16.2514 7.75736C15.9166 7.42262 15.3739 7.42262 15.0392 7.75736L12.0087 10.7878L8.97826 7.75736Z" fill="#999999"/>
</svg>
